<svg xmlns="http://www.w3.org/2000/svg" width="85.457" height="63.932" viewBox="0 0 85.457 63.932"><defs><style>.a{fill:#8e5307;}</style></defs><path class="a" d="M73.536,61.542V42.723h2.251a1.7,1.7,0,0,0,1.531-2.431L71.465,28.766a5.107,5.107,0,0,0-2.791-2.521L58.5,22.463a4.971,4.971,0,0,0-3.6,0L44.721,26.245a5.107,5.107,0,0,0-2.791,2.521L36.077,40.292a1.684,1.684,0,0,0,1.531,2.431h2.251v8.1a253.188,253.188,0,0,0-26.383,1.531A1.456,1.456,0,0,0,12.215,53.8v8.374c-5.943.81-9.815,1.981-9.815,3.422V75.95a3.228,3.228,0,0,0,3.242,3.242h78.97a3.228,3.228,0,0,0,3.242-3.242V65.5C88.033,63.793,82.18,62.353,73.536,61.542Zm-22.781.81,6.033-6.033,6.123,6.033Zm8.284-8.464,6.123-6.213V59.922ZM56.7,51.547l-6.123-6.033H62.73Zm-2.341,2.431-6.123,6.213V47.855Zm-1.711-20.44a1,1,0,0,1,.99-.99h6.213a1,1,0,0,1,.991.99V37.86a1,1,0,0,1-.991.99H53.636a1,1,0,0,1-.991-.99V33.538ZM39.859,60.372c-1.351,0-2.611,0-3.872.09V53.708c1.261,0,2.611-.09,3.872-.09ZM29.053,53.979c1.351-.09,2.7-.09,4.142-.18v6.753c-1.351,0-2.791.09-4.142.18V53.979Zm-2.881,6.843c-1.441.09-2.791.18-4.142.27V54.339c1.351-.09,2.7-.18,4.142-.27ZM15.1,54.969c1.261-.18,2.7-.27,4.142-.36v6.753c-1.441.09-2.791.27-4.142.36Z" transform="translate(-2.4 -15.259)"/><ellipse class="a" cx="5.493" cy="5.493" rx="5.493" ry="5.493" transform="translate(10.266 10.265)"/><path class="a" d="M19.691,22.154a1.9,1.9,0,0,0,1.891-1.891V16.391a1.891,1.891,0,1,0-3.782,0v3.872A1.963,1.963,0,0,0,19.691,22.154Z" transform="translate(-3.933 -14.5)"/><path class="a" d="M10.242,25.053a1.879,1.879,0,0,0,2.7-2.611l-2.7-2.7a1.848,1.848,0,0,0-2.611,0A1.363,1.363,0,0,0,7,21a1.833,1.833,0,0,0,.54,1.351Z" transform="translate(-2.857 -14.968)"/><path class="a" d="M4.391,33.682H8.263a1.891,1.891,0,1,0,0-3.782H4.391A1.9,1.9,0,0,0,2.5,31.791,1.846,1.846,0,0,0,4.391,33.682Z" transform="translate(-2.41 -16.033)"/><path class="a" d="M10.242,38.341l-2.7,2.7a1.891,1.891,0,0,0,1.351,3.242,1.833,1.833,0,0,0,1.351-.54l2.7-2.7a1.848,1.848,0,0,0,0-2.611A1.878,1.878,0,0,0,10.242,38.341Z" transform="translate(-2.857 -16.821)"/><path class="a" d="M17.9,42.891v3.872a1.891,1.891,0,1,0,3.782,0V42.891a1.891,1.891,0,1,0-3.782,0Z" transform="translate(-3.943 -17.138)"/><path class="a" d="M26.24,38.34a1.848,1.848,0,0,0,0,2.611l2.7,2.7a1.879,1.879,0,0,0,2.7-2.611l-2.7-2.7A1.958,1.958,0,0,0,26.24,38.34Z" transform="translate(-4.72 -16.819)"/><path class="a" d="M28.9,31.791a1.9,1.9,0,0,0,1.891,1.891h3.872a1.891,1.891,0,0,0,0-3.782H30.791A1.964,1.964,0,0,0,28.9,31.791Z" transform="translate(-5.039 -16.033)"/><path class="a" d="M27.6,25.593a1.833,1.833,0,0,0,1.351-.54l2.7-2.7a1.846,1.846,0,1,0-2.611-2.611l-2.7,2.7a1.848,1.848,0,0,0,0,2.611A1.511,1.511,0,0,0,27.6,25.593Z" transform="translate(-4.73 -14.968)"/></svg>