<svg xmlns="http://www.w3.org/2000/svg" width="69.74" height="80.5" viewBox="0 0 69.74 80.5"><defs><style>.a{fill:#8e5307;}</style></defs><g transform="translate(31.539)"><path class="a" d="M49.4,17.918a3.308,3.308,0,0,0,3.3-3.3V5.8a3.3,3.3,0,1,0-6.608,0v8.81A3.308,3.308,0,0,0,49.4,17.918Z" transform="translate(-46.1 -2.5)"/></g><g transform="translate(15.73 2.827)"><path class="a" d="M30.625,18.6a3.364,3.364,0,0,0,3.134,2.2,4.958,4.958,0,0,0,1.1-.169A3.261,3.261,0,0,0,36.809,16.4L33.844,8.008A3.3,3.3,0,1,0,27.66,10.3Z" transform="translate(-27.437 -5.837)"/></g><g transform="translate(44.354 2.776)"><path class="a" d="M63.406,20.452a2.5,2.5,0,0,0,1.1.169,3.364,3.364,0,0,0,3.134-2.2L70.607,10.2a3.3,3.3,0,0,0-6.184-2.287l-2.965,8.217A3.257,3.257,0,0,0,63.406,20.452Z" transform="translate(-61.225 -5.777)"/></g><g transform="translate(0 21.525)"><path class="a" d="M76.837,38.067a18.073,18.073,0,0,0-28.972-4.913l-4.151,4.236L40.07,33.747c-5.591-5.591-14.147-7.624-21.094-4.066a18.059,18.059,0,0,0-4.829,28.972L41.426,85.931a3.324,3.324,0,0,0,4.659,0l26.77-26.77C78.361,53.57,80.395,45.014,76.837,38.067ZM36.343,45.691a3.727,3.727,0,1,1-3.727,3.727A3.761,3.761,0,0,1,36.343,45.691ZM54.048,61.364c-1.779,4.659-3.9,7.709-10.335,7.709s-8.556-2.965-10.335-7.709a2.13,2.13,0,0,1,2.033-2.88c2.2.085,5.252.169,8.387.169s6.184-.085,8.387-.169A2.1,2.1,0,0,1,54.048,61.364Zm-2.965-8.133A3.727,3.727,0,1,1,54.811,49.5,3.761,3.761,0,0,1,51.083,53.231Z" transform="translate(-8.871 -27.908)"/></g></svg>