<svg xmlns="http://www.w3.org/2000/svg" width="101.912" height="72.512" viewBox="0 0 101.912 72.512"><defs><style>.a{fill:#8e5307;fill-rule:evenodd;}</style></defs><path class="a" d="M76.076,198.546h2.886l7.283,10.077,7.281-10.077h2.886a12.1,12.1,0,0,1,12.067,12.067V219.6H64.01v-8.989a12.1,12.1,0,0,1,12.065-12.067ZM86.245,147.09a9.022,9.022,0,1,0,9.022,9.022A9.021,9.021,0,0,0,86.245,147.09Zm21.218,11.475a9.022,9.022,0,1,0,9.022,9.022A9.023,9.023,0,0,0,107.463,158.565Zm-41.66,0a9.022,9.022,0,1,0,9.022,9.022A9.022,9.022,0,0,0,65.8,158.565Zm-20.42,43.059H62.745a10.249,10.249,0,0,1,2.079.213,13.569,13.569,0,0,0-3.217,8.776V219.6H35.08v-7.675a10.332,10.332,0,0,1,10.3-10.3ZM54.065,177.4c5.612,0,10.162,3.036,10.162,9.461s-4.55,13.807-10.162,13.807S43.9,193.287,43.9,186.863,48.451,177.4,54.065,177.4Zm55.262,24.224H126.69a10.33,10.33,0,0,1,10.3,10.3V219.6H110.466v-8.989a13.576,13.576,0,0,0-3.217-8.776A10.226,10.226,0,0,1,109.327,201.625Zm8.682-24.224c5.612,0,10.162,3.036,10.162,9.461s-4.55,13.807-10.162,13.807-10.162-7.383-10.162-13.807S112.4,177.4,118.009,177.4Zm-31.764-7.225c6.573,0,11.9,3.555,11.9,11.08s-5.329,16.172-11.9,16.172-11.9-8.646-11.9-16.172S79.671,170.176,86.245,170.176Z" transform="translate(-35.08 -147.09)"/></svg>