<svg xmlns="http://www.w3.org/2000/svg" width="92.457" height="86.238" viewBox="0 0 92.457 86.238"><defs><style>.a{fill:#8e5307;}</style></defs><path class="a" d="M4.194,57.332,1.8,34.042a3.179,3.179,0,0,1,1.15-3.067,2.8,2.8,0,0,1,4.025.288c.863,1.054,1.342,4.217,1.438,5.08a96.7,96.7,0,0,1,1.15,10.447v.671a10.755,10.755,0,0,0,.958,3.834c3.067,6.709,9.3,15.239,9.3,15.239l.383.479a.915.915,0,0,0,1.15.288.969.969,0,0,0,.383-1.246L13.491,52.636a3.442,3.442,0,0,1,1.246-4.6,3.341,3.341,0,0,1,4.6,1.054l8.626,11.022a13.619,13.619,0,0,0,2.4,2.3c7.763,5.559,8.722,11.214,9.393,14.089a12.057,12.057,0,0,1,.1,1.534h0a13.58,13.58,0,0,1-.192,2.684l-.479,9.3a1.269,1.269,0,0,1-1.246,1.246l-14.473-.1a1.269,1.269,0,0,1-1.246-1.246l-.288-7.668L8.124,65.671A13.411,13.411,0,0,1,4.29,58.2Zm6.23-24.441c.288.863.383,1.629.575,2.4a89.119,89.119,0,0,1,1.15,9.872v.767a3.442,3.442,0,0,1,.958-.671,3.36,3.36,0,0,1,1.342-.575.094.094,0,0,1,.1-.1,75.879,75.879,0,0,0-1.821-9.3A3.4,3.4,0,0,0,10.424,32.892Zm4.6,3.259c.383,1.725,1.342,4.984,1.629,6.613l.192,1.15V44.2a8.152,8.152,0,0,1,2.109.383c-.192-1.534-1.246-4.7-1.629-6.134A3.454,3.454,0,0,0,15.025,36.151ZM76.653,48.994,68.027,60.016a13.619,13.619,0,0,1-2.4,2.3c-7.763,5.559-8.722,11.214-9.393,14.089a12.058,12.058,0,0,0-.1,1.534h0a13.58,13.58,0,0,0,.192,2.684l.479,9.3a1.269,1.269,0,0,0,1.246,1.246l14.473-.1a1.269,1.269,0,0,0,1.246-1.246l.288-7.668,13.8-16.581A13.411,13.411,0,0,0,91.7,58.1l.1-.863,2.4-23.29a3.659,3.659,0,0,0-1.15-3.067,2.8,2.8,0,0,0-4.025.288c-.863,1.054-1.342,4.217-1.438,5.08a96.694,96.694,0,0,0-1.15,10.447v.671a10.755,10.755,0,0,1-.958,3.834c-3.067,6.709-9.3,15.239-9.3,15.239l-.383.575a.915.915,0,0,1-1.15.288.969.969,0,0,1-.383-1.246L82.5,52.636a3.442,3.442,0,0,0-1.246-4.6A3.319,3.319,0,0,0,76.653,48.994Zm7.188-3.067V45.16a89.121,89.121,0,0,1,1.15-9.872,10.892,10.892,0,0,1,.575-2.4,3.279,3.279,0,0,0-2.2,2.4c-.575,2.4-1.438,6.9-1.821,9.3a.094.094,0,0,0,.1.1c.479.192.863.383,1.342.575C83.266,45.448,83.554,45.735,83.841,45.927Zm-5.08-7.284c-.383,1.438-1.438,4.6-1.629,6.134a5.158,5.158,0,0,1,2.109-.383v-.288l.192-1.15c.192-1.725,1.246-4.888,1.629-6.613A2.645,2.645,0,0,0,78.762,38.643ZM33.906,17.94a1.891,1.891,0,0,0,.479-2.3l-.288-.767a1.974,1.974,0,0,1,1.342-2.684L36.206,12a1.847,1.847,0,0,0,1.438-1.821V9.41a1.944,1.944,0,0,1,2.3-1.821l.767.1a2,2,0,0,0,2.109-.958l.383-.671a1.976,1.976,0,0,1,2.875-.671l.671.479a2.02,2.02,0,0,0,2.3,0l.671-.479a1.976,1.976,0,0,1,2.875.671l.383.671A2.064,2.064,0,0,0,55.088,7.78l.767-.1a1.969,1.969,0,0,1,2.3,1.917v.767a1.847,1.847,0,0,0,1.438,1.821l.767.192a1.958,1.958,0,0,1,1.246,2.684l-.288.767a2.248,2.248,0,0,0,.479,2.3l.575.479a2.029,2.029,0,0,1,0,2.971l-.575.479a1.891,1.891,0,0,0-.479,2.3l.288.767a1.974,1.974,0,0,1-1.342,2.684L59.784,28a1.847,1.847,0,0,0-1.438,1.821v.767a1.944,1.944,0,0,1-2.3,1.821l-.767-.1a2,2,0,0,0-2.109.958l-.383.671a1.976,1.976,0,0,1-2.875.671l-.671-.479a2.02,2.02,0,0,0-2.3,0l-.671.479a1.976,1.976,0,0,1-2.875-.671l-.383-.671A2.064,2.064,0,0,0,40.9,32.221l-.767.1a1.969,1.969,0,0,1-2.3-1.917v-.767A1.847,1.847,0,0,0,36.4,27.812l-.767-.192a1.958,1.958,0,0,1-1.246-2.684l.288-.767a2.248,2.248,0,0,0-.479-2.3l-.575-.479a2.029,2.029,0,0,1,0-2.971Zm4.984,2.109A9.105,9.105,0,1,0,48,10.943,9.1,9.1,0,0,0,38.89,20.049Zm7.668,4.6,2.2-2.2,4.984-4.984-2.2-2.2-4.984,5.08-2.109-2.109-2.2,2.2,2.109,2.109Zm18.019-.863h0v.1l.288.863H77.516c.383,0,.671-.479.383-.767L74.832,20.24a.292.292,0,0,1,0-.383L77.9,16.023c.288-.288,0-.767-.383-.767H64.864c-.1.288-.192.671-.288.958v.1l.1.1A5,5,0,0,1,66.3,20.145,4.892,4.892,0,0,1,64.576,23.787Zm-33.162.1h0v-.1a5,5,0,0,1-1.629-3.738,4.771,4.771,0,0,1,1.725-3.738l.1-.1v-.1l-.288-.863H18.475c-.383,0-.671.479-.383.767l3.067,3.738a.292.292,0,0,1,0,.383l-3.067,3.834c-.288.288,0,.767.383.767H31.127Zm.1,25.207L34.1,47.46l2.588,1.629a.623.623,0,0,0,.958-.671l-.767-2.971,2.4-2.013a.653.653,0,0,0-.383-1.15l-3.067-.192-1.15-2.875a.6.6,0,0,0-1.15,0l-1.15,2.875-3.067.192a.668.668,0,0,0-.383,1.15l2.4,2.013-.767,2.971A.656.656,0,0,0,31.51,49.09Zm13.9,0L48,47.46l2.588,1.629a.623.623,0,0,0,.958-.671l-.671-3.067,2.4-2.013a.653.653,0,0,0-.383-1.15L49.816,42l-1.15-2.875a.6.6,0,0,0-1.15,0L46.366,42l-3.163.288a.668.668,0,0,0-.383,1.15l2.4,2.013-.767,2.971C44.257,48.9,44.928,49.377,45.407,49.09Zm16.965-9.872a.6.6,0,0,0-1.15,0l-1.15,2.875L57,42.285a.668.668,0,0,0-.383,1.15l2.4,2.013-.767,2.971c-.1.575.479,1.054.958.671L61.8,47.46l2.588,1.629a.623.623,0,0,0,.958-.671l-.767-2.971,2.4-2.013a.653.653,0,0,0-.383-1.15l-3.067-.192ZM38.507,60.5l2.588-1.629L43.682,60.5a.623.623,0,0,0,.958-.671l-.767-2.971,2.4-2.013a.653.653,0,0,0-.383-1.15L42.82,53.5l-1.15-2.875a.6.6,0,0,0-1.15,0L39.369,53.5,36.3,53.69a.668.668,0,0,0-.383,1.15l2.4,2.013-.767,2.971A.6.6,0,0,0,38.507,60.5Zm13.8,0L54.9,58.866,57.484,60.5a.623.623,0,0,0,.958-.671l-.767-2.971,2.4-2.013a.653.653,0,0,0-.383-1.15L56.621,53.5l-1.15-2.875a.6.6,0,0,0-1.15,0L53.171,53.5,50.1,53.69a.668.668,0,0,0-.383,1.15l2.4,2.013-.767,2.971A.609.609,0,0,0,52.308,60.5Z" transform="translate(-1.75 -5.023)"/></svg>