<svg xmlns="http://www.w3.org/2000/svg" width="81.195" height="81.223" viewBox="0 0 81.195 81.223"><defs><style>.a{fill:#8e5307;}</style></defs><path class="a" d="M81.8,24.548a11.367,11.367,0,0,0-1.033-1.137c-.517-.62-1.137-1.137-1.757-1.757-.413-.413-.827-.723-1.137-1.033a40.574,40.574,0,0,0-55.5,59.114l.207.207.207.207A40.553,40.553,0,0,0,91.93,51.315,41.194,41.194,0,0,0,81.8,24.548ZM68.677,80.768c-.31.207-.723.413-1.033.62A34.384,34.384,0,0,1,29.3,77.564L40.773,66.093l-4.444-4.444L25.477,72.5l-.62.62A34.27,34.27,0,0,1,73.12,24.858l-9.808,9.808,4.444,4.444L77.564,29.3a34.269,34.269,0,0,1-8.888,51.466Z" transform="translate(-10.735 -10.714)"/><path class="a" d="M77.373,47.912a5.529,5.529,0,0,0-3.1-3.462l-.114-.052L48.89,34.146a5.622,5.622,0,0,1-.692-.393l-1.313-1.312a3.463,3.463,0,0,0-.486-.4,4.888,4.888,0,0,0-1.344-4.351l-.362-.362a4.93,4.93,0,0,0-6.873,0l-8.847,8.836a4.93,4.93,0,0,0,0,6.873l.372.372a4.806,4.806,0,0,0,4.361,1.354,3.265,3.265,0,0,0,.382.465l1.323,1.323a.951.951,0,0,1,.269.393l.062.176L45.976,72.508l.062.124a5.426,5.426,0,0,0,3.6,3.1h.1a5.271,5.271,0,0,0,4.671-1.157l21.775-21.7A5.064,5.064,0,0,0,77.373,47.912Zm-43.5-6.552a1.705,1.705,0,0,1-2.336-.155l-.362-.362a1.8,1.8,0,0,1,0-2.48l8.836-8.846a1.809,1.809,0,0,1,2.491,0l.362.362A1.788,1.788,0,0,1,43.01,32.2Zm40.119,9.3L52.218,72.415a2.336,2.336,0,0,1-1.974.362,2.47,2.47,0,0,1-1.385-1.385L38.628,45.958a4.134,4.134,0,0,0-1.033-1.612l-1.312-1.313,8.4-8.4L46,35.944a5.715,5.715,0,0,0,1.612,1.033L72.96,47.312a2.542,2.542,0,0,1,1.4,1.4,2,2,0,0,1-.362,1.933Z" transform="translate(-10.168 -10.205)"/><path class="a" d="M69.75,48.651l-12.061-4.9a1.219,1.219,0,0,0-1.612,1.178,5.4,5.4,0,0,1-1.457,4.382c-2.067,2.067-5.849,1.9-9.725-.072a1.137,1.137,0,0,0-1.6,1.457l7.09,17.321a.909.909,0,0,0,1.53.362l18.2-18.168a.961.961,0,0,0-.362-1.561Z" transform="translate(-9.649 -9.611)"/><path class="a" d="M23.78,52.857a3.1,3.1,0,0,0,6.2,0c0-1.695-3.1-8.547-3.1-8.547S23.78,51.162,23.78,52.857Z" transform="translate(-10.297 -9.59)"/></svg>