<svg xmlns="http://www.w3.org/2000/svg" width="95.758" height="56.617" viewBox="0 0 95.758 56.617"><defs><style>.a{fill:#8e5307;}</style></defs><path class="a" d="M13.212,38.1a10.172,10.172,0,0,1,10.027,8.541h35.9a1.8,1.8,0,0,0,1.8-1.8V1.8a1.8,1.8,0,0,0-1.8-1.8H1.8A1.8,1.8,0,0,0,0,1.8V44.847a1.8,1.8,0,0,0,1.8,1.8H3.186A10.171,10.171,0,0,1,13.212,38.1ZM30.354,7.828A14.379,14.379,0,0,1,31.911,36.5a8.609,8.609,0,0,0,1.953-4.226,7.962,7.962,0,0,0-2.184-6.339l-1.41,1.205a6.2,6.2,0,0,1,1.758,4.875,7.878,7.878,0,0,1-2.73,4.528A14.377,14.377,0,0,1,30.354,7.828Z"/><path class="a" d="M261.1,44.907a4.929,4.929,0,0,0-3.955-2.385H239.709a2.7,2.7,0,0,0-2.7,2.7V75.146a2.7,2.7,0,0,0,2.7,2.7h1.028a10.155,10.155,0,0,1,20.052,0h6.168a2.7,2.7,0,0,0,2.7-2.7V63.809a12.922,12.922,0,0,0-1.259-5.08Zm-15.412.311V58.087h-5.978V45.218Zm-.48,18.981h-3.715V62.76h3.715Zm1.918-6.111V45.218h10.02a2.356,2.356,0,0,1,1.57.947l6.294,11.922H247.125Z" transform="translate(-173.896 -31.198)"/><path class="a" d="M265.618,149.83a8.358,8.358,0,1,0,8.358,8.358A8.358,8.358,0,0,0,265.618,149.83Zm4.763,8.358a4.763,4.763,0,1,1-4.763-4.763A4.768,4.768,0,0,1,270.38,158.188Z" transform="translate(-188.75 -109.929)"/><path class="a" d="M26.582,149.83a8.358,8.358,0,1,0,8.358,8.358A8.359,8.359,0,0,0,26.582,149.83Zm0,13.122a4.763,4.763,0,1,1,4.764-4.764A4.768,4.768,0,0,1,26.582,162.952Z" transform="translate(-13.371 -109.929)"/><path class="a" d="M119.08,68.849c1.435.873,3.129.712,4.72-1.9s1.043-7.559,1.043-7.559-4.649,1.781-6.24,4.392S117.645,67.974,119.08,68.849Z" transform="translate(-86.334 -43.574)"/><path class="a" d="M106.746,59.22c.979-.22,1.64-.992,1.24-2.774s-2.686-3.681-2.686-3.681-1.26,2.694-.86,4.474S105.767,59.439,106.746,59.22Z" transform="translate(-76.57 -38.713)"/><path class="a" d="M82.733,79.469c2.411,1.882,4.053,1.436,5.088.111s1.067-3.026-1.344-4.908-7.389-1.906-7.389-1.906S80.322,77.589,82.733,79.469Z" transform="translate(-58.027 -53.387)"/><ellipse class="a" cx="3.021" cy="3.021" rx="3.021" ry="3.021" transform="translate(78.018 18.266)"/></svg>