<svg xmlns="http://www.w3.org/2000/svg" width="80.47" height="80.457" viewBox="0 0 80.47 80.457"><defs><style>.a{fill:#8e5307;}</style></defs><path class="a" d="M22.341,23C21.6,23,21,23.921,21,25.058s.6,2.058,1.341,2.058,1.341-.921,1.341-2.058S23.081,23,22.341,23Z" transform="translate(4.477 5.16)"/><path class="a" d="M32.341,27.118c.74,0,1.341-.921,1.341-2.058S33.081,23,32.341,23,31,23.921,31,25.058,31.6,27.118,32.341,27.118Z" transform="translate(7.887 5.16)"/><path class="a" d="M25.261,29.256a1.006,1.006,0,1,0-2.011,0,5.029,5.029,0,1,0,10.057,0,1.006,1.006,0,1,0-2.011,0,3.017,3.017,0,1,1-6.034,0Z" transform="translate(5.244 6.95)"/><path class="a" d="M82.439,28.61c-.139-.882-.818-1.526-2.017-1.912a6.744,6.744,0,0,0-7.612,2.773l-5.774,8.664c.44-3.386,1.011-7.418,1.647-11.217l.071.058C70.411,24.9,78.6,14.341,77.024,9.622a2.425,2.425,0,0,0-2.129-1.766c-1.852-.113-3.776,1.759-5.706,5.615-1.13,2.262-2.239,7.541-3.163,13.05a8.054,8.054,0,0,0-7.2-5.719l-4.759-3.8L49.548,6.13A5.392,5.392,0,0,0,44.327,2h-17.6A5.39,5.39,0,0,0,21.5,6.133L16.985,16.952,12.222,20.8a8.049,8.049,0,0,0-7.54,8.02c0,4.817,7.472,6.233,11.206,6.45l1.73,5.619h-4.89a5.369,5.369,0,0,0-5.364,5.364A5.316,5.316,0,0,0,8.423,49.42a9.377,9.377,0,0,0,1.715,18.194,9.316,9.316,0,0,0,1.117,3.347l-1.21,11.5H64.7l.166-.016a5.344,5.344,0,0,0,5.168-4.778l3-28.018a6.649,6.649,0,0,0-5.578-7.3l3.792-5.687C75.144,35.375,83.025,32.307,82.439,28.61ZM22.835,9.9H37.623A4.024,4.024,0,0,1,41.56,13.1l.06.148-.1.013a45.489,45.489,0,0,1-12,0l-7.663-1.022ZM15.7,21.436l2.076-1.676,11.394,1.519a48.175,48.175,0,0,0,6.352.421,48.175,48.175,0,0,0,6.352-.421l2.851-.379,1.124,2.769a45.643,45.643,0,0,1-20.724-.013ZM22.114,25.7l2.4.565a48.33,48.33,0,0,0,22.024,0l2.4-.565v7.141a13.409,13.409,0,1,1-26.819,0Zm3.229,40.544a40.387,40.387,0,0,1-3.1-9.926L24.8,54.344a1.336,1.336,0,0,0,.139.552l4.731,9.463Zm10.18,10.848a1.341,1.341,0,1,1,1.341-1.341A1.341,1.341,0,0,1,35.523,77.093Zm0-6.7a1.341,1.341,0,1,1,1.341-1.341A1.341,1.341,0,0,1,35.523,70.388Zm5.206-8.046h-9.07l-4.181-8.362V52.956H30.16A1.34,1.34,0,0,0,31.5,51.615V48.4a15.541,15.541,0,0,0,8.046,0v3.212a1.34,1.34,0,0,0,1.341,1.341H44.91v1.024Zm6.316,3.9-4.326-1.885L47.45,54.9a1.32,1.32,0,0,0,.139-.552l2.559,1.977A40.2,40.2,0,0,1,47.045,66.245Zm8.5-16.6.664,6.2L52.25,54.554l-5.18-4a1.322,1.322,0,0,0-.819-.268v-.012H42.228V47.616h-.342a16.176,16.176,0,0,0,8.5-8.633,17.553,17.553,0,0,0,3.143-3.7c2.837-.126,9.138-.964,11.705-3.751-.676,4.591-1.18,8.724-1.411,10.7H62.211a6.7,6.7,0,0,0-6.666,7.418Zm9.479.628a1.34,1.34,0,0,1-1.341,1.341H59.66a1.341,1.341,0,0,1,0-2.682h4.023A1.34,1.34,0,0,1,65.024,50.274Zm-6.7,13.409a1.34,1.34,0,0,1,1.341-1.341h5.364a1.341,1.341,0,0,1,0,2.682H59.66A1.34,1.34,0,0,1,58.319,63.684Zm8.046,6.7H63.683a1.341,1.341,0,0,1,0-2.682h2.682a1.341,1.341,0,0,1,0,2.682ZM69.047,54.3a1.341,1.341,0,0,1,0,2.682H63.683a1.341,1.341,0,0,1,0-2.682Z" transform="translate(-2 -2)"/></svg>