<svg xmlns="http://www.w3.org/2000/svg" width="85.662" height="84.44" viewBox="0 0 85.662 84.44"><defs><style>.a{fill:#8e5307;}</style></defs><path class="a" d="M37.588,96.375V80.364a17.26,17.26,0,0,0,6.221-4.589,9.79,9.79,0,0,0,4.589,1.02,11.008,11.008,0,0,0,7.037-19.478A11.008,11.008,0,0,0,48.4,37.838h-.714C45.441,30.7,39.73,25.6,32.9,25.6c-8.668,0-15.807,8.26-15.807,18.459v.1a11,11,0,0,0-2.957,21.11,10.507,10.507,0,0,0-1.02,4.691,11.232,11.232,0,0,0,11.32,11.014,20.159,20.159,0,0,0,4.079-.714V96.375Z" transform="translate(-7.3 -11.935)"/><path class="a" d="M66.947,20.007a1.04,1.04,0,0,0,.816.51.919.919,0,0,0,.51-.1,1.031,1.031,0,0,0,.408-1.326L66.336,15.01a.981.981,0,0,0-1.734.918Z" transform="translate(-6.167 -12.154)"/><path class="a" d="M62.831,29.82a1.022,1.022,0,0,0-1.02-1.02H57.12a1.02,1.02,0,0,0,0,2.04h4.691A1.1,1.1,0,0,0,62.831,29.82Z" transform="translate(-6.335 -11.871)"/><path class="a" d="M63.908,23.048,59.829,20.7a.981.981,0,0,0-.918,1.734l4.079,2.346a.919.919,0,0,0,.51.1.908.908,0,0,0,.816-.51A1.074,1.074,0,0,0,63.908,23.048Z" transform="translate(-6.288 -12.035)"/><path class="a" d="M62.889,35,58.81,37.348a.973.973,0,0,0,.408,1.836.919.919,0,0,0,.51-.1l4.079-2.346a1.031,1.031,0,0,0,.408-1.326A.9.9,0,0,0,62.889,35Z" transform="translate(-6.29 -11.751)"/><path class="a" d="M84.118,24.883a.919.919,0,0,0,.51-.1l4.079-2.346a.981.981,0,1,0-.918-1.734L83.71,23.047a1.031,1.031,0,0,0-.408,1.326A.908.908,0,0,0,84.118,24.883Z" transform="translate(-5.798 -12.033)"/><path class="a" d="M73.72,18.931a1.022,1.022,0,0,0,1.02-1.02V13.22a1.02,1.02,0,0,0-2.04,0v4.691A1.1,1.1,0,0,0,73.72,18.931Z" transform="translate(-6.005 -12.2)"/><path class="a" d="M79.21,20.416a.919.919,0,0,0,.51.1.908.908,0,0,0,.816-.51l2.346-4.079a.981.981,0,0,0-1.734-.918L78.8,19.09A1.031,1.031,0,0,0,79.21,20.416Z" transform="translate(-5.886 -12.156)"/><path class="a" d="M90.411,28.8H85.72a1.02,1.02,0,0,0,0,2.04h4.691a1.022,1.022,0,0,0,1.02-1.02A1.1,1.1,0,0,0,90.411,28.8Z" transform="translate(-5.769 -11.871)"/><path class="a" d="M73.884,39.468A9.484,9.484,0,1,0,64.4,29.984,9.532,9.532,0,0,0,73.884,39.468Z" transform="translate(-6.171 -12.036)"/><path class="a" d="M88.708,37.348,84.629,35a.981.981,0,1,0-.918,1.734l4.079,2.346a.919.919,0,0,0,.51.1.908.908,0,0,0,.816-.51A1.074,1.074,0,0,0,88.708,37.348Z" transform="translate(-5.8 -11.751)"/><path class="a" d="M68.274,39.4a.9.9,0,0,0-1.326.408L64.6,43.89a.9.9,0,0,0,.408,1.326.919.919,0,0,0,.51.1.908.908,0,0,0,.816-.51l2.346-4.079A1.074,1.074,0,0,0,68.274,39.4Z" transform="translate(-6.169 -11.664)"/><path class="a" d="M80.536,39.71a.981.981,0,1,0-1.734.918l2.346,4.079a1.04,1.04,0,0,0,.816.51.919.919,0,0,0,.51-.1,1.031,1.031,0,0,0,.408-1.326Z" transform="translate(-5.886 -11.665)"/><path class="a" d="M73.72,40.9a1.022,1.022,0,0,0-1.02,1.02v4.691a1.02,1.02,0,0,0,2.04,0V41.92A1.022,1.022,0,0,0,73.72,40.9Z" transform="translate(-6.005 -11.631)"/><g transform="translate(47.012 46.911)"><path class="a" d="M79.711,75.741a6.024,6.024,0,0,0,2.142-4.691,6.137,6.137,0,0,0-6.119-6.119h-.408C74.1,61.055,70.941,58.2,67.167,58.2a8.529,8.529,0,0,0-7.547,5.2,8.772,8.772,0,0,1,.1,1.632A12.518,12.518,0,0,1,53.4,75.945a6.212,6.212,0,0,0,3.569,4.079,5.529,5.529,0,0,0-.612,2.55,5.946,5.946,0,0,0,5.813,6.119c.714,0,1.938-.1,1.938-.408v7.445h5.1V88.386c0-.51,2.753-1.326,3.773-2.55a5.95,5.95,0,0,0,2.651.612,6.137,6.137,0,0,0,6.119-6.119A5.57,5.57,0,0,0,79.711,75.741Z" transform="translate(-53.4 -58.2)"/></g></svg>