<svg xmlns="http://www.w3.org/2000/svg" xmlns:xlink="http://www.w3.org/1999/xlink" width="32.559" height="32.226" viewBox="0 0 32.559 32.226"><defs><linearGradient id="a" x1="0.5" x2="0.5" y2="1" gradientUnits="objectBoundingBox"><stop offset="0" stop-color="#73b84d"/><stop offset="0.007" stop-color="#72b74c"/><stop offset="0.352" stop-color="#5da94a"/><stop offset="0.687" stop-color="#50a049"/><stop offset="1" stop-color="#4c9e49"/></linearGradient></defs><ellipse cx="16.279" cy="16.113" rx="16.279" ry="16.113" fill="#73b84d"/><g transform="translate(0.312 18.54)"><path d="M369,150.923l-5.754,8.465a16.1,16.1,0,0,1-1.955-2.582l5.06-5.883Z" transform="translate(-359.275 -150.923)" fill="url(#a)"/><path d="M359.292,150.923l-3.219,2.709a15.208,15.208,0,0,1-.535-1.989l1.155-.72Z" transform="translate(-355.538 -150.923)" fill="url(#a)"/><path d="M385.615,150.923l-1.84,13.388a16.188,16.188,0,0,1-4.535-1.594l3.922-11.795Z" transform="translate(-370.932 -150.923)" fill="url(#a)"/><path d="M411.757,162.54a16.24,16.24,0,0,1-4.578,1.713l-1.968-13.33H407.5Z" transform="translate(-387.801 -150.923)" fill="url(#a)"/><path d="M427.322,156.524a15.993,15.993,0,0,1-1.984,2.714l-5.6-8.315h2.554Z" transform="translate(-397.237 -150.923)" fill="url(#a)"/><path d="M439.8,151.44a15.6,15.6,0,0,1-.512,2.012l-3.244-2.528h2.82Z" transform="translate(-407.829 -150.923)" fill="url(#a)"/></g><path d="M386.769,115.026a15.027,15.027,0,0,1-.166,2.229H356.589a15.163,15.163,0,1,1,30.18-2.229Z" transform="translate(-355.3 -98.716)" fill="#fff"/><g transform="translate(2.747 5.19)"><circle cx="2.64" cy="2.64" r="2.64" transform="translate(10.325 1.457)" fill="#8e5307"/><path d="M390.829,123.729a.089.089,0,0,0-.011.016,46.482,46.482,0,0,0-4.1,7.718c-.232.6-.4,1.106-.526,1.532h-3.366c-1.421-3.129-6.952-9.011-7.022-9.085l.027-.029A34.065,34.065,0,0,0,381,127.752a5.114,5.114,0,0,0,3.066.609,4.921,4.921,0,0,0,2.551-1.138c1.2-1.007,3.163-3.1,3.778-3.762l.131-.141.253.307Z" transform="translate(-370.665 -119.645)" fill="#8e5307"/><g transform="translate(0 3.85)"><path d="M366.347,123.857s.034-.05.071-.035.264.164.217.315-.319.659-.233.933a1.144,1.144,0,0,1-.146.848,2.1,2.1,0,0,0-.253.556c0,.071-.136.014-.143-.046a19.378,19.378,0,0,1-1.154,1.585,3.015,3.015,0,0,1-2.394,1.311,1.247,1.247,0,0,1-1.175-1.275,1.621,1.621,0,0,1,.926-1.3,9.651,9.651,0,0,0,2.379-1.6s-.207-.054-.128-.153.466-.239.727-.463.613-.107.72-.117S366.072,124.282,366.347,123.857Z" transform="translate(-361.137 -123.819)" fill="#73b84d"/><path d="M372.425,126.142a.658.658,0,0,1,.3.693,4,4,0,0,1-.3.722,2.085,2.085,0,0,1-.026-.5c.006-.163-.042-.184-.142-.13s-.478.3-.563.265.218-.319.116-.7c0,0-.027-.114-.176-.044a.808.808,0,0,1-.506,0s-.036-.031.028-.048.4-.286.494-.335A.751.751,0,0,1,372.425,126.142Z" transform="translate(-367.62 -125.229)" fill="#fff"/></g><g transform="translate(19.234)"><path d="M421.576,114.69a.051.051,0,0,1,.081.02,4.476,4.476,0,0,1,.15,1.093,2.18,2.18,0,0,1-2.281,2.593s-.816-1.522,1.286-2.412a1.819,1.819,0,0,0-1.823,2.232s-1.133-2.038,1.442-2.861A3.734,3.734,0,0,0,421.576,114.69Z" transform="translate(-417.785 -114.031)" fill="#73b84d"/><path d="M418.331,114.1a4.88,4.88,0,0,0-1.531-1.266.063.063,0,0,0-.082.061,3.1,3.1,0,0,1-.441,1.545,1.826,1.826,0,0,0,.232,2.205,1.475,1.475,0,0,0,.423.284.656.656,0,0,0,.082.037.012.012,0,0,0,.016-.015c-.006-.024-.018-.066-.035-.121a1.681,1.681,0,0,0-.212-.455.159.159,0,0,1-.011-.018,1.5,1.5,0,0,1-.063-1.39,4.851,4.851,0,0,0,.409-.761,2.77,2.77,0,0,1-.164.546c-.008.018-.016.037-.024.056l-.011.027a.864.864,0,0,0-.073.518h0a.565.565,0,0,0,.02.077s.113-.751,1.461-1.321A.007.007,0,0,0,418.331,114.1Z" transform="translate(-416.014 -112.835)" fill="#73b84d"/></g></g></svg>