<svg xmlns="http://www.w3.org/2000/svg" xmlns:xlink="http://www.w3.org/1999/xlink" width="367.008" height="117.182" viewBox="0 0 367.008 117.182"><defs><style>.a{fill:#73b84d;}.b{fill:url(#a);}.c{fill:#fff;}.d{fill:#8e5307;}.e{fill:#4c9e49;}</style><linearGradient id="a" x1="0.5" x2="0.5" y2="1" gradientUnits="objectBoundingBox"><stop offset="0" stop-color="#73b84d"/><stop offset="0.007" stop-color="#72b74c"/><stop offset="0.352" stop-color="#5da94a"/><stop offset="0.687" stop-color="#50a049"/><stop offset="1" stop-color="#4c9e49"/></linearGradient></defs><g transform="translate(-90 -6952.974)"><g transform="translate(0 6859.974)"><g transform="translate(90 93)"><ellipse class="a" cx="59.195" cy="58.591" rx="59.195" ry="58.591"/><g transform="translate(1.136 67.414)"><path class="b" d="M389.326,150.923,368.4,181.7a58.543,58.543,0,0,1-7.109-9.388l18.4-21.394Z" transform="translate(-353.959 -150.923)"/><path class="b" d="M369.188,150.923l-11.706,9.852a55.315,55.315,0,0,1-1.944-7.234l4.2-2.618Z" transform="translate(-355.538 -150.923)"/><path class="b" d="M402.423,150.923l-6.692,48.683a58.86,58.86,0,0,1-16.492-5.8l14.26-42.888Z" transform="translate(-349.032 -150.923)"/><path class="b" d="M429.012,193.165a59.053,59.053,0,0,1-16.645,6.23l-7.156-48.472h8.325Z" transform="translate(-341.903 -150.923)"/><path class="b" d="M447.31,171.289a58.145,58.145,0,0,1-7.215,9.87L419.74,150.923h9.287Z" transform="translate(-337.915 -150.923)"/><path class="b" d="M449.7,152.8a56.727,56.727,0,0,1-1.862,7.316l-11.794-9.194H446.3Z" transform="translate(-333.439 -150.923)"/></g><path class="c" d="M466.769,154.646a54.633,54.633,0,0,1-.6,8.106H357.028a54.477,54.477,0,0,1-.605-8.106c0-30.182,24.7-54.649,55.17-54.649S466.769,124.464,466.769,154.646Z" transform="translate(-352.339 -95.338)"/><g transform="translate(9.99 18.871)"><circle class="d" cx="9.601" cy="9.601" r="9.601" transform="translate(37.546 5.3)"/><path class="d" d="M430.43,124.806a.323.323,0,0,0-.041.059c-5.548,8.695-11.284,18.763-14.9,28.063-.845,2.173-1.462,4.022-1.914,5.572H401.34c-5.167-11.379-25.281-32.766-25.533-33.036l.1-.106c.112.1,11.138,10.057,18.782,14.078a18.6,18.6,0,0,0,11.148,2.214,17.893,17.893,0,0,0,9.277-4.14c4.35-3.663,11.5-11.272,13.738-13.679q.3-.325.475-.511l.921,1.116Z" transform="translate(-357.111 -109.957)"/><g transform="translate(0 13.998)"><path class="a" d="M380.082,123.957s.124-.181.259-.129.958.6.79,1.146-1.159,2.4-.848,3.393a4.159,4.159,0,0,1-.531,3.083,7.649,7.649,0,0,0-.919,2.02c-.014.259-.493.052-.519-.168a70.506,70.506,0,0,1-4.2,5.763c-2.253,2.487-5.259,5.232-8.7,4.765a4.533,4.533,0,0,1-4.273-4.637,5.9,5.9,0,0,1,3.367-4.713,35.088,35.088,0,0,0,8.651-5.828s-.752-.2-.466-.557,1.7-.868,2.642-1.684,2.228-.389,2.617-.427S379.079,125.505,380.082,123.957Z" transform="translate(-361.137 -123.819)"/><path class="c" d="M375.868,126.544a2.391,2.391,0,0,1,1.089,2.521,14.537,14.537,0,0,1-1.089,2.625,7.584,7.584,0,0,1-.094-1.83c.022-.594-.154-.67-.516-.472s-1.737,1.085-2.048.964.794-1.161.423-2.543c0,0-.1-.414-.639-.161a2.939,2.939,0,0,1-1.839-.008s-.13-.112.1-.173,1.447-1.039,1.8-1.217A2.73,2.73,0,0,1,375.868,126.544Z" transform="translate(-358.398 -123.223)"/></g><g transform="translate(69.94)"><path class="a" d="M429.052,114.724a.184.184,0,0,1,.3.071,16.269,16.269,0,0,1,.546,3.974c-.022,1.185.822,9.421-8.3,9.43,0,0-2.966-5.534,4.675-8.771,0,0-7.511-.113-6.63,8.115,0,0-4.12-7.411,5.245-10.4A13.576,13.576,0,0,0,429.052,114.724Z" transform="translate(-415.266 -112.33)"/><path class="a" d="M424.437,117.451c-.3-.358-3.164-3.741-5.566-4.6a.229.229,0,0,0-.3.223,11.283,11.283,0,0,1-1.6,5.619,6.641,6.641,0,0,0,.845,8.019,5.361,5.361,0,0,0,1.538,1.034,2.38,2.38,0,0,0,.3.135.044.044,0,0,0,.059-.054c-.023-.088-.065-.24-.129-.44a6.109,6.109,0,0,0-.77-1.656.586.586,0,0,1-.041-.065,5.436,5.436,0,0,1-.229-5.055,17.636,17.636,0,0,0,1.486-2.766,10.069,10.069,0,0,1-.6,1.987c-.031.065-.059.135-.087.205-.015.033-.027.064-.041.1a3.14,3.14,0,0,0-.264,1.884v0a2.075,2.075,0,0,0,.071.28s.412-2.73,5.313-4.8A.027.027,0,0,0,424.437,117.451Z" transform="translate(-416.014 -112.835)"/></g></g></g><g transform="translate(224.182 117.047)"><path class="e" d="M468.852,134.175l.086-.086c1.537-2.22,3.885-3.158,6.747-3.158,2.733,0,5.081.811,6.36,3.372,1.623-2.561,4.1-3.372,7-3.372,3.8,0,7,1.58,7,5.764,0,1.11-.6,9.222-.768,16.053H487c.17-1.878.683-10.117.683-12.382,0-1.537-.258-3.2-2.136-3.2-2.091,0-2.819,2.177-3.074,3.885-.6,3.843-.384,7.812-.6,11.7h-8.327c.3-2.773.768-11.74.768-12.551,0-1.494-.384-3.031-2.177-3.031-2.222,0-2.819,2.432-3.074,4.227a100.557,100.557,0,0,0-.556,11.356h-8.325c.425-7.086.854-14.174.938-21.305h7.857Z" transform="translate(-460.186 -124.27)"/><path class="e" d="M478.769,131.169h8.284c1.239,5,2.945,9.864,3.544,14.687h.086a151.331,151.331,0,0,1,5.208-14.687h8.069l-10.289,23.654c-2.007,4.57-3.673,7.771-10.248,7.771a23.325,23.325,0,0,1-5.124-.6l-.852-6.105a11.217,11.217,0,0,0,4.055.9c2.563,0,3.928-1.58,4.568-3.885Z" transform="translate(-440.394 -123.997)"/><path class="e" d="M512.1,138.417c.129-2.947.255-4.911.255-10.589h9.265c-.554,8.454-1.2,15.029-1.2,28.477h-9.351c.384-3.885.6-7.771.685-11.783h-11.4c-.129,2.733-.213,5.337-.341,11.783h-9.265c.683-8.709,1.322-15.8,1.322-28.477h9.267c-.3,3.5-.556,7-.642,10.589Z" transform="translate(-425.139 -127.828)"/><path class="e" d="M510.463,132.253a45.982,45.982,0,0,1,10.076-1.322c6.747,0,8.967,2.263,8.967,5.807,0,1.067-.726,11.742-.726,16.01h-8.2c.341-3.158.47-6.36.64-9.52-1.578,1.11-6.489,1.282-6.489,3.8,0,1.324,1.2,1.709,2.349,1.709a6.825,6.825,0,0,0,2.262-.384l-1.408,4.654a23.15,23.15,0,0,1-3.416.255c-7.814,0-7.9-5.635-7.9-6.105,0-9.009,14.561-6.234,14.561-9.99,0-1.41-1.5-1.709-2.649-1.709a26.866,26.866,0,0,0-8.924,2.007Z" transform="translate(-406.942 -124.27)"/><path class="e" d="M527.856,133.747l.086-.084a7.368,7.368,0,0,1,5.337-2.733,5.889,5.889,0,0,1,1.707.213l.258,6.874a8.2,8.2,0,0,0-2.222-.425,5,5,0,0,0-5.038,4.055c-.511,2.177-.554,5.85-.554,11.1h-8.241c.47-5.847.854-11.74.854-21.305h7.9Z" transform="translate(-392.531 -124.27)"/><path class="e" d="M544.112,131.169h8.5c-3.332,7-6.406,14.134-9.394,21.305h-8.881c-2.179-7.172-4.7-14.217-7.174-21.305h8.37L539.2,144.7h.086Z" transform="translate(-383.388 -123.997)"/><path class="e" d="M547.624,143.356c0,3.329,2.773,4.525,5.592,4.525a27.876,27.876,0,0,0,7.473-1.408l-1.024,5.976a36.267,36.267,0,0,1-7.43.811c-6.79,0-12.723-2.05-12.723-10.461,0-2.263.9-11.869,12.253-11.869,7,0,10.845,3.286,10.845,9.222a16.353,16.353,0,0,1-.3,3.2Zm7.129-3.885c0-2.477-1.024-3.757-3.074-3.757a3.946,3.946,0,0,0-3.8,3.757Z" transform="translate(-369.227 -124.27)"/><path class="e" d="M569.231,137.506a13.179,13.179,0,0,0-5-.983c-1.024,0-2.945,0-2.945,1.069,0,2.306,7.43,4.012,7.43,9.52,0,4.7-5.339,6.148-9.138,6.148a37.429,37.429,0,0,1-7.556-.938l-.64-6.193a17.551,17.551,0,0,0,6.189,1.539c.94,0,2.776-.043,2.776-1.282,0-2.007-7.428-4.4-7.428-9.394,0-3.544,2.6-6.062,8.623-6.062a47.523,47.523,0,0,1,7.344.726Z" transform="translate(-355.614 -124.27)"/><path class="e" d="M572.34,139.75c-.129,2.391-.3,4.356-.3,7.174,0,1.621.341,2.945,2.134,2.945a11.806,11.806,0,0,0,2.988-.47l-1.067,5.893a22.509,22.509,0,0,1-5.592.683c-4.1,0-6.833-1.11-6.833-5.678,0-3.372.47-6.747.6-10.547h-3.2l.213-5.594h3.458l.258-3.843,7.771-1.749-.215,5.592h4.783l-.172,5.594Z" transform="translate(-344.509 -126.984)"/><g transform="translate(79.119 43.876)"><path class="c" d="M506.948,157.767h10.845l-.212,6.191c-1.835-.084-3.716-.084-5.551-.084h-5.422l-.256,11.272h-9.308c.554-4.484,1.322-17.933,1.322-28.48h22.074l-.3,6.191c-2.391-.086-4.781-.086-7.172-.086h-5.85Z" transform="translate(-497.043 -146.667)"/><path class="c" d="M512.62,151.092a45.97,45.97,0,0,1,10.074-1.322c6.747,0,8.967,2.263,8.967,5.807,0,1.067-.725,11.742-.725,16.012h-8.2c.343-3.16.47-6.363.642-9.523-1.58,1.11-6.489,1.282-6.489,3.8,0,1.324,1.194,1.709,2.348,1.709a6.834,6.834,0,0,0,2.263-.384l-1.41,4.654a23.148,23.148,0,0,1-3.415.256c-7.814,0-7.9-5.635-7.9-6.105,0-9.009,14.561-6.234,14.561-9.991,0-1.41-1.494-1.709-2.647-1.709a26.864,26.864,0,0,0-8.924,2.007Z" transform="translate(-483.591 -143.109)"/><path class="c" d="M530.01,152.589l.086-.086a7.372,7.372,0,0,1,5.337-2.733,5.9,5.9,0,0,1,1.709.213l.255,6.874a8.192,8.192,0,0,0-2.22-.425,5,5,0,0,0-5.038,4.055c-.513,2.177-.556,5.85-.556,11.1h-8.239c.468-5.85.852-11.742.852-21.308h7.9Z" transform="translate(-469.178 -143.109)"/><path class="c" d="M538.581,153.014l.086-.084c1.537-2.222,3.886-3.16,6.747-3.16,2.733,0,5.081.811,6.361,3.372,1.623-2.561,4.1-3.372,7-3.372,3.8,0,7,1.58,7,5.764,0,1.11-.6,9.222-.769,16.055h-8.282c.17-1.881.683-10.119.683-12.384,0-1.537-.258-3.2-2.136-3.2-2.091,0-2.819,2.177-3.074,3.885-.6,3.842-.384,7.814-.6,11.7h-8.327c.3-2.776.768-11.742.768-12.554,0-1.494-.384-3.031-2.177-3.031-2.22,0-2.819,2.432-3.074,4.227a100.6,100.6,0,0,0-.556,11.358h-8.325c.425-7.088.854-14.177.938-21.308h7.857Z" transform="translate(-459.35 -143.109)"/><path class="c" d="M566.157,156.345a13.179,13.179,0,0,0-5-.983c-1.024,0-2.945,0-2.945,1.069,0,2.306,7.43,4.012,7.43,9.52,0,4.7-5.339,6.148-9.138,6.148a37.454,37.454,0,0,1-7.556-.938l-.64-6.191a17.593,17.593,0,0,0,6.191,1.537c.938,0,2.774-.043,2.774-1.282,0-2.007-7.428-4.4-7.428-9.394,0-3.544,2.6-6.062,8.623-6.062a47.514,47.514,0,0,1,7.344.726Z" transform="translate(-438.258 -143.109)"/></g></g></g></g></svg>