<svg xmlns="http://www.w3.org/2000/svg" width="107.689" height="46.635" viewBox="0 0 107.689 46.635"><defs><style>.a{fill:#323232;}.b{fill:#4b9d49;}</style></defs><path class="a" d="M-15065.494,4575.876s20.811-1.655,28.236-20.962a28.329,28.329,0,0,1,26.426-18.046c9.283.157,19,5.941,24.477,18.046,12.078,26.722,28.551,20.652,28.551,20.652l-8.061,7.932Z" transform="translate(15065.494 -4536.864)"/><g transform="translate(41.5 11.047)"><path class="b" d="M29.166,27.053a.968.968,0,1,0,1.369,1.369l2.816-2.816v10a.982.982,0,0,0,1.963,0V25.632l2.816,2.816a.951.951,0,0,0,1.369,0,1,1,0,0,0,.284-.7,1.046,1.046,0,0,0-.284-.7l-4.469-4.469a1,1,0,0,0-1.395,0Z" transform="translate(-22.062 -17.185)"/><path class="b" d="M2.5,14.77A12.27,12.27,0,1,0,14.77,2.5,12.281,12.281,0,0,0,2.5,14.77Zm22.6,0A10.333,10.333,0,1,1,14.77,4.437,10.363,10.363,0,0,1,25.1,14.77Z" transform="translate(-2.5 -2.5)"/></g></svg>