<svg id="Component_9_3" data-name="Component 9 – 3" xmlns="http://www.w3.org/2000/svg" width="47.665" height="41.707" viewBox="0 0 47.665 41.707">
  <path id="Path_74" data-name="Path 74" d="M.745,0A.7.7,0,0,0,0,.745V20.109a.7.7,0,0,0,.745.745H13.406A13.217,13.217,0,0,1,0,34.259v7.448A20.861,20.861,0,0,0,20.853,20.853V.745A.7.7,0,0,0,20.109,0ZM27.556,0a.7.7,0,0,0-.745.745V20.109a.7.7,0,0,0,.745.745H40.217A13.217,13.217,0,0,1,26.812,34.259v7.448A20.861,20.861,0,0,0,47.665,20.853V.745A.7.7,0,0,0,46.92,0Z" opacity="0.6"/>
</svg>
