<svg xmlns="http://www.w3.org/2000/svg" width="87" height="85.726" viewBox="0 0 87 85.726"><g transform="translate(-1002.609 -987)"><path d="M14.207,416.466a4.824,4.824,0,0,1,8.936-.96,3.075,3.075,0,0,1,5.477,2.632,3.377,3.377,0,1,1,1.218,6.527H14.28a4.1,4.1,0,0,1-.073-8.2Zm0,0" transform="translate(993.852 647.012)" fill="#49cb5c"/><path d="M119.878,147.056H71.137V108.086L95.507,90.3l24.371,17.782Zm0,0" transform="translate(941.418 924.503)" fill="#f0f0f0"/><path d="M226.5,90.3l-3.076,2.244,21.294,15.537v38.969h6.153V108.086Zm0,0" transform="translate(821.33 924.503)" fill="#e8e8e8"/><path d="M194.216,312.393v17.215h-19.88V312.393a9.94,9.94,0,1,1,19.88,0Zm0,0" transform="translate(859.913 742.02)" fill="#09a66d"/><path d="M88.65,88.362,51.3,66.135a4.045,4.045,0,0,0-4.008,0L9.719,88.358a2.437,2.437,0,0,0-.744,3.85,3.7,3.7,0,0,0,2.746,1.132,3.934,3.934,0,0,0,2-.529l35.569-21.04L84.634,92.806a3.929,3.929,0,0,0,2.005.534,3.7,3.7,0,0,0,2.74-1.126A2.436,2.436,0,0,0,88.65,88.362Zm0,0" transform="translate(995.449 930.572)" fill="#09a66d"/><path d="M295.444,192.758l-12.1-8.8a1.049,1.049,0,0,0-1.234,1.7l12.1,8.8a1.049,1.049,0,1,0,1.234-1.7Zm0,0" transform="translate(770.891 835.48)" fill="#dbdbdb"/><path d="M358.923,3.568c5.73-5.283,16.3-3.139,16.3-3.139s1.28,10.71-4.451,15.993-16.3,3.138-16.3,3.138S353.192,8.851,358.923,3.568Zm0,0" transform="translate(713.215 987.001)" fill="#49cb5c"/><path d="M387.207.43a28.335,28.335,0,0,0-7.979-.262c1.13.121,1.827.262,1.827.262s1.28,10.71-4.451,15.993a14.673,14.673,0,0,1-8.323,3.4c3.278.35,10.214.529,14.475-3.4C388.487,11.14,387.207.43,387.207.43Zm0,0" transform="translate(701.23 987)" fill="#07b128"/><path d="M369.618,3.108c-.036-.818-.094-1.307-.094-1.307s-.506-.1-1.358-.208l-12.1,11.172V3.036a11.927,11.927,0,0,0-2.1,1.277V14.7l-5.3,4.89-.616.569a1.049,1.049,0,0,0,1.423,1.541l.613-.567,5.471-5.053a1.061,1.061,0,0,0,.3-.276l5.317-4.911h7.7c.181-.707.323-1.411.431-2.1h-5.856Zm0,0" transform="translate(718.914 985.629)" fill="#09a66d"/><path d="M314.712,395.521a6.078,6.078,0,0,0-11.259-1.21,3.875,3.875,0,0,0-6.9,3.317,4.255,4.255,0,1,0-1.534,8.224h19.6a5.166,5.166,0,0,0,.091-10.332Zm0,0" transform="translate(767.91 665.825)" fill="#49cb5c"/><path d="M336.814,409.579a6.069,6.069,0,0,1,.5-.794,3.94,3.94,0,0,0-.612.639C336.739,409.474,336.777,409.526,336.814,409.579Zm0,0" transform="translate(723.209 650.557)" fill="#07b128"/><path d="M407.045,395.521a6.073,6.073,0,0,0-8.94-3.648,6.089,6.089,0,0,1,2.787,3.648,5.166,5.166,0,0,1-.091,10.332h6.153a5.166,5.166,0,0,0,.091-10.332Zm0,0" transform="translate(675.576 665.825)" fill="#07b128"/><path d="M85.726,491.6H1.274a1.069,1.069,0,1,1,0-2.1H85.726a1.069,1.069,0,1,1,0,2.1Zm0,0" transform="translate(1002.609 581.128)" fill="#09a66d"/></g></svg>