<svg xmlns="http://www.w3.org/2000/svg" width="80.047" height="87.91" viewBox="0 0 80.047 87.91">
  <g id="Group_461" data-name="Group 461" transform="translate(-1453.445 -983)">
    <path id="Path_16" data-name="Path 16" d="M398.285,265.255V244.739a2.891,2.891,0,1,1,5.783,0v17.395" transform="translate(1123.091 782.12)" fill="#e5a171"/>
    <path id="Path_17" data-name="Path 17" d="M41.279,265.255V244.739a2.891,2.891,0,1,0-5.783,0v17.395" transform="translate(1424.281 782.12)" fill="#e5a171"/>
    <path id="Path_18" data-name="Path 18" d="M103.22,35.249C103.22,15.781,88.179,0,69.623,0s-33.6,15.781-33.6,35.249S51.069,70.5,69.623,70.5,103.22,54.716,103.22,35.249Zm0,0" transform="translate(1423.845 983)" fill="#89c8fd"/>
    <path id="Path_19" data-name="Path 19" d="M213.042,0a35.5,35.5,0,0,0-4.354.269,35.263,35.263,0,0,1,0,69.959A35.244,35.244,0,1,0,213.042,0Zm0,0" transform="translate(1278.868 983)" fill="#60b6ff"/>
    <g id="Group_173" data-name="Group 173" transform="translate(1459.872 983.071)">
      <path id="Path_20" data-name="Path 20" d="M173.053,14.026c-5.416,3.394-9.477,8.823-6.431,14.932s9.815,3.733,16.077,2.884,1.523,18.5,5.246,23.247,14.216-4.751,13.2-10.859c-1.5-9.045-2.031-12.217,10.154-18.666l.033-.012A35.2,35.2,0,0,0,179.824.4V.451S178.469,10.633,173.053,14.026Zm0,0" transform="translate(-145.585 -0.398)" fill="#baeb6c"/>
      <path id="Path_21" data-name="Path 21" d="M356.574,43.6l.007.006Zm0,0" transform="translate(-302.511 -35.895)" fill="#baeb6c"/>
      <path id="Path_22" data-name="Path 22" d="M380.672,66.652v0Zm0,0" transform="translate(-322.31 -54.834)" fill="#baeb6c"/>
      <path id="Path_23" data-name="Path 23" d="M47.828,156.975c-1.626-2.481,2.877-8.314,3.892-12.727s-5.077-4.072-6.939-5.6-4.4-8.144-6.262-9.672l-.3-.235a35.346,35.346,0,0,0,12.133,40.68l.011-.739A16.225,16.225,0,0,0,47.828,156.975Zm0,0" transform="translate(-36.027 -105.847)" fill="#baeb6c"/>
    </g>
    <path id="Path_24" data-name="Path 24" d="M275.7,25.552a35.207,35.207,0,0,0-7.384-13.334h0a35.412,35.412,0,0,0-4.292-4.106l-.007-.006A34.935,34.935,0,0,0,244.187.4V.451s-.078.585-.271,1.52A35.264,35.264,0,0,1,268.067,30.5a37.924,37.924,0,0,1,7.6-4.931Zm0,0" transform="translate(1249.924 982.673)" fill="#96d629"/>
    <path id="Path_25" data-name="Path 25" d="M270.884,268.478l-.178-13.713a2.9,2.9,0,0,1,.232-1.165l9.786-22.213a2.892,2.892,0,0,1,3.882-1.484l.183.086a2.99,2.99,0,0,1,1.487,3.879l-3.32,7.1a2.892,2.892,0,0,0,4.275,3.53l10.829-7.285a2.892,2.892,0,0,0,1.278-2.4V218.5a2.892,2.892,0,0,1,2.891-2.892,3.3,3.3,0,0,1,3.3,3.286c.017,4.666.047,17.018.052,20.016a2.889,2.889,0,0,1-.749,1.944L286.87,260.676a2.89,2.89,0,0,0-.749,1.941v5.861Zm0,0" transform="translate(1227.913 802.432)" fill="#f1c395"/>
    <path id="Path_26" data-name="Path 26" d="M339.321,218.891a3.3,3.3,0,0,0-3.3-3.286,2.892,2.892,0,0,0-2.892,2.892v16.314a2.892,2.892,0,0,1-1.277,2.4l-.563.378c0,.538,0,.985,0,1.318a2.89,2.89,0,0,1-.749,1.944l-17.961,19.825a2.889,2.889,0,0,0-.749,1.941v5.861h8.078v-5.861a2.889,2.889,0,0,1,.748-1.941l17.961-19.825a2.885,2.885,0,0,0,.748-1.944C339.368,235.909,339.338,223.557,339.321,218.891Zm0,0" transform="translate(1194.119 802.432)" fill="#f1ba84"/>
    <path id="Path_27" data-name="Path 27" d="M34.7,268.478l.178-13.713a2.9,2.9,0,0,0-.232-1.165l-9.786-22.213a2.892,2.892,0,0,0-3.882-1.484l-.269.126a2.891,2.891,0,0,0-1.438,3.751l3.356,7.184a2.891,2.891,0,0,1-4.275,3.53L7.517,237.21a2.892,2.892,0,0,1-1.277-2.4V218.5a2.892,2.892,0,0,0-2.891-2.892,3.3,3.3,0,0,0-3.3,3.286C.034,223.557,0,235.909,0,238.907a2.886,2.886,0,0,0,.748,1.944L18.71,260.676a2.893,2.893,0,0,1,.749,1.941v5.861Zm0,0" transform="translate(1453.445 802.432)" fill="#f1c395"/>
  </g>
</svg>
