<svg xmlns="http://www.w3.org/2000/svg" width="18.256" height="18.274" viewBox="0 0 18.256 18.274"><defs><style>.a{fill:#161616;}</style></defs><path class="a" d="M514.925,194.049a4.576,4.576,0,0,1,3.725,3.724.755.755,0,0,0,.748.632.666.666,0,0,0,.12-.011.007.007,0,0,0,.006,0,.756.756,0,0,0,.621-.876,6.084,6.084,0,0,0-4.968-4.963h0a.759.759,0,0,0-.25,1.5Z" transform="translate(-505.122 -189.322)"/><path class="a" d="M33.735,84.554a2,2,0,0,0-1.452-.66,2.048,2.048,0,0,0-1.46.65L29.769,85.6l-.076-.039-.054-.026c-.113-.057-.243-.122-.35-.189a12.671,12.671,0,0,1-3.021-2.755,7.392,7.392,0,0,1-.9-1.382c.265-.25.511-.5.743-.737l.157-.159c.052-.054.106-.107.159-.161a1.953,1.953,0,0,0,0-2.949L25.4,76.177c-.059-.059-.119-.119-.176-.178s-.117-.119-.174-.176l-.082-.083c-.2-.206-.411-.419-.622-.613a2.02,2.02,0,0,0-1.438-.626,2.094,2.094,0,0,0-1.456.626s0,0,0,0l-1.284,1.282a2.991,2.991,0,0,0-.887,1.9v0a6.713,6.713,0,0,0,.5,2.892,16.432,16.432,0,0,0,2.912,4.861,17.974,17.974,0,0,0,5.961,4.668h0a9.357,9.357,0,0,0,3.4,1h.015c.076,0,.156.007.239.007a3.072,3.072,0,0,0,2.343-1.008l.009-.009a.184.184,0,0,0,.019-.02,8.359,8.359,0,0,1,.637-.658c.165-.157.333-.319.5-.493a2.123,2.123,0,0,0,.641-1.478,2.067,2.067,0,0,0-.654-1.462Zm-.2,5.163a1.55,1.55,0,0,1-1.223.509c-.048,0-.1,0-.157-.007a7.974,7.974,0,0,1-2.836-.852,16.321,16.321,0,0,1-5.463-4.274h0A14.975,14.975,0,0,1,21.2,80.678a5.161,5.161,0,0,1-.408-2.242,1.451,1.451,0,0,1,.448-.954l1.275-1.275a.6.6,0,0,1,.4-.2.577.577,0,0,1,.383.2l.006.006c.22.207.435.426.663.656l.007.007c.109.113.235.243.363.367l1.023,1.023c.3.3.3.508,0,.806-.107.107-.217.217-.324.328l-.076.078c-.287.291-.558.565-.852.826a.085.085,0,0,0-.013.013l-.019.019a1,1,0,0,0-.252,1.11c0,.011.007.02.011.03h0a.066.066,0,0,0,.007.017,8.48,8.48,0,0,0,1.252,2.04s0,0,0,0a14.1,14.1,0,0,0,3.394,3.088,5.492,5.492,0,0,0,.484.265c.115.057.245.124.352.189a.138.138,0,0,0,.022.013l.006,0c.011.006.022.013.035.019a1.056,1.056,0,0,0,.485.12,1.02,1.02,0,0,0,.75-.337l1.282-1.282a.607.607,0,0,1,.389-.2.57.57,0,0,1,.367.2l0,0,2.069,2.069c.2.2.343.445-.017.823l0,0c-.113.122-.233.239-.361.363-.028.026-.056.054-.083.082a8.731,8.731,0,0,0-.741.761Z" transform="translate(-19.263 -73.467)"/><path class="a" d="M531.267,26.787a9.857,9.857,0,0,0-8.042-8.034.758.758,0,0,0-.252,1.495,8.344,8.344,0,0,1,6.8,6.795.755.755,0,0,0,.748.632h.006a.615.615,0,0,0,.115-.011.007.007,0,0,0,.006,0,.758.758,0,0,0,.622-.874Z" transform="translate(-513.023 -18.742)"/></svg>